<svg version="1.1" id="Layer_1" xmlns="http://www.w3.org/2000/svg" xmlns:xlink="http://www.w3.org/1999/xlink" x="0px" y="0px"
	 width="100%" viewBox="0 0 842 371" enable-background="new 0 0 842 371" xml:space="preserve">
<path fill="#040404" opacity="1.000000" stroke="none" 
	d="
M502.000000,372.000000 
	C336.166656,372.000000 170.833313,371.985168 5.500062,372.093842 
	C1.750668,372.096283 0.902053,371.249512 0.905615,367.499908 
	C1.020226,246.833344 1.020226,126.166641 0.905615,5.500090 
	C0.902054,1.750478 1.750856,0.905372 5.500034,0.906750 
	C283.166656,1.008834 560.833313,1.008834 838.499939,0.906750 
	C842.249146,0.905372 843.097961,1.750478 843.094360,5.500090 
	C842.979797,126.166641 842.979797,246.833344 843.094421,367.499908 
	C843.097961,371.249512 842.249573,372.098389 838.499878,372.094513 
	C726.500000,371.978210 614.500000,372.000000 502.000000,372.000000 
z"/>
<path fill="#FAFAFA" opacity="1.000000" stroke="none" 
	d="
M720.928833,173.177795 
	C724.554504,194.608749 719.073975,212.535645 701.266174,224.918549 
	C684.076294,236.871719 665.351196,237.373093 647.004150,227.495346 
	C626.896179,216.669510 617.853088,192.886871 624.198242,169.917114 
	C630.080322,148.623840 650.445435,134.168015 673.637024,134.823746 
	C696.908264,135.481705 713.859680,149.092422 720.928833,173.177795 
z"/>
<path fill="#FAFAFA" opacity="1.000000" stroke="none" 
	d="
M380.788086,194.114960 
	C379.468872,191.970520 378.481995,191.003250 376.756378,193.450531 
	C374.748169,196.298569 372.448578,198.954666 370.132690,201.567535 
	C368.587128,203.311310 368.098175,205.197357 368.132446,207.488312 
	C368.241943,214.813385 368.081482,222.142944 368.227325,229.466751 
	C368.277802,232.000549 367.616394,232.835983 364.927063,232.920563 
	C352.817932,233.301254 352.820831,233.400009 352.820770,221.313507 
	C352.820679,194.504440 352.884796,167.695053 352.745453,140.886719 
	C352.726532,137.245667 353.289001,135.750397 357.469940,135.872742 
	C368.171814,136.185928 368.178772,135.949341 368.178772,146.794418 
	C368.178772,158.413467 368.178741,170.032516 368.178741,181.621872 
	C370.030731,182.273605 370.302979,180.750885 370.914551,179.976135 
	C381.529938,166.528061 392.183685,153.108627 402.624634,139.525818 
	C404.662109,136.875275 406.732086,135.690613 410.063599,135.926285 
	C414.036194,136.207291 418.043915,135.992508 422.068420,135.992508 
	C422.496399,137.952438 420.897339,138.733871 420.062256,139.799683 
	C410.518555,151.980057 400.991577,164.175995 391.240448,176.189499 
	C389.164001,178.747681 389.267395,180.249863 391.220306,182.833633 
	C402.147675,197.291122 412.839478,211.926636 423.603271,226.507645 
	C424.961639,228.347733 426.270111,230.224670 428.141388,232.838394 
	C421.912781,232.838394 416.515503,232.747299 411.123932,232.883362 
	C408.977386,232.937546 408.350037,231.413086 407.395935,230.123352 
	C398.593781,218.224487 389.797699,206.321106 380.788086,194.114960 
z"/>
<path fill="#FAFAFA" opacity="1.000000" stroke="none" 
	d="
M546.781860,149.077087 
	C537.222717,154.245163 536.695862,164.014023 545.347107,169.846878 
	C550.748169,173.488327 556.940186,175.583618 562.802368,178.320160 
	C568.550598,181.003510 574.114380,183.973236 578.655334,188.522446 
	C588.627075,198.512100 589.333679,224.170715 568.751099,231.512512 
	C550.990479,237.847717 531.020325,232.291107 520.958374,217.852310 
	C518.860657,214.842102 518.172363,212.741577 522.435669,211.479126 
	C522.590271,211.433365 522.720520,211.310852 522.868896,211.237793 
	C525.402161,209.989975 527.889038,207.870728 530.483276,207.729523 
	C533.419128,207.569733 533.967285,211.495300 535.887695,213.372375 
	C542.476257,219.812042 553.879761,222.103836 562.348450,218.392014 
	C571.906860,214.202576 572.943237,203.063004 564.296936,196.774857 
	C560.378418,193.925064 555.788757,192.307953 551.461975,190.212799 
	C547.434204,188.262436 543.268433,186.546799 539.413513,184.298828 
	C526.033081,176.496109 520.954407,163.536163 525.952148,150.522675 
	C530.549622,138.551712 544.257996,132.287613 558.854248,135.454010 
	C566.313171,137.072113 572.336426,140.833572 576.935913,146.986877 
	C578.526001,149.114120 579.027100,150.637939 576.221191,151.998062 
	C575.183777,152.500946 574.217590,153.200272 573.320129,153.933899 
	C569.695129,156.897263 566.960938,158.207870 563.262695,153.120514 
	C559.540039,147.999588 553.232727,147.820206 546.781860,149.077087 
z"/>
<path fill="#FAFAFA" opacity="1.000000" stroke="none" 
	d="
M466.335083,219.744446 
	C454.068115,191.809769 441.978882,164.211914 429.616943,135.991516 
	C434.769928,135.991516 439.358337,136.113861 443.935974,135.944534 
	C446.580200,135.846741 446.701691,137.827744 447.377136,139.415314 
	C455.292236,158.018585 463.188934,176.629684 471.105743,195.232208 
	C471.747406,196.739960 472.501160,198.200027 473.466949,200.240158 
	C481.682648,180.298035 489.819489,160.965836 497.542023,141.469513 
	C499.201813,137.279236 501.060272,135.232773 505.721771,135.913254 
	C508.649597,136.340652 511.690643,135.992889 514.703857,135.992889 
	C514.180664,139.837585 477.828430,226.169815 473.044037,234.756485 
	C470.707611,229.506744 468.610168,224.794022 466.335083,219.744446 
z"/>
<path fill="#FAFAFA" opacity="1.000000" stroke="none" 
	d="
M756.756836,205.597168 
	C759.217224,199.567154 761.804626,193.978622 763.743591,188.173523 
	C764.906677,184.691544 766.720093,183.593048 770.186462,183.932510 
	C773.130249,184.220779 776.124634,183.992004 779.810303,183.992004 
	C777.000305,190.867691 774.426575,197.278687 771.766174,203.653473 
	C764.235596,221.698273 756.538696,239.675430 749.223633,257.806854 
	C747.692871,261.601227 745.985352,263.486145 741.747925,262.914642 
	C738.984985,262.541992 736.131042,262.844391 732.546265,262.844391 
	C735.647034,255.389801 737.909973,248.049500 741.606750,241.521133 
	C746.755981,232.427795 746.502075,224.456451 741.267944,215.343079 
	C735.622253,205.513184 731.564514,194.771271 726.786865,184.368027 
	C727.417725,184.183319 727.571960,184.098907 727.726379,184.098663 
	C732.546509,184.090973 738.083191,182.611908 741.987305,184.502640 
	C745.971802,186.432281 746.194458,192.677597 748.154297,196.989822 
	C750.199341,201.489304 752.049377,206.077362 754.261658,211.277924 
	C755.240845,209.056061 755.925842,207.501755 756.756836,205.597168 
z"/>
<path fill="#C65499" opacity="1.000000" stroke="none" 
	d="
M231.746521,146.140671 
	C240.400543,140.900146 248.901749,135.815674 257.479553,130.863892 
	C260.494537,129.123428 263.405457,129.615189 265.209290,132.717407 
	C267.163940,136.078979 265.839661,138.817749 262.696411,140.671875 
	C254.029633,145.784164 245.317688,150.819855 236.267899,155.901886 
	C232.308426,154.224762 230.686356,151.265549 230.622192,147.052826 
	C230.770340,146.699951 230.972687,146.782272 230.940170,146.886536 
	C231.190170,146.825699 231.428909,146.611740 231.746521,146.140671 
z"/>
<path fill="#E14046" opacity="1.000000" stroke="none" 
	d="
M148.126740,101.331970 
	C145.363388,92.103394 142.794266,83.174583 140.393509,74.200722 
	C139.477509,70.776779 140.921661,68.144150 144.320251,67.225853 
	C147.737732,66.302444 150.162628,67.850327 151.115402,71.341232 
	C153.742096,80.965393 156.336502,90.598381 158.913849,100.624161 
	C159.024780,104.674286 156.898468,105.002945 154.009384,104.460243 
	C151.829529,104.050758 149.842636,103.393166 148.126740,101.331970 
z"/>
<path fill="#E14046" opacity="1.000000" stroke="none" 
	d="
M193.725906,96.592743 
	C195.962311,88.046242 197.999664,79.877663 200.103165,71.726151 
	C201.035095,68.114723 203.467056,66.271210 207.122726,67.180862 
	C211.318832,68.224991 211.719833,71.680710 210.850876,75.138298 
	C208.875595,82.998032 206.631073,90.790100 204.234589,98.955551 
	C203.071945,101.118736 202.948807,103.364761 200.374878,104.109009 
	C195.075317,105.641365 192.755249,103.295982 193.725906,96.592743 
z"/>
<path fill="#7B5DA1" opacity="1.000000" stroke="none" 
	d="
M264.809814,155.245483 
	C271.968018,153.108109 278.878387,150.873428 285.926727,149.230957 
	C288.776978,148.566772 292.090485,149.226410 293.000366,152.862808 
	C293.834808,156.197754 292.555267,158.589920 288.970154,159.572433 
	C280.215576,161.971649 271.490112,164.477066 262.355652,166.908264 
	C259.300232,162.979614 261.446136,159.713806 263.534180,156.028564 
	C263.734802,155.643097 263.934937,155.733749 263.894501,155.835876 
	C264.164429,155.831360 264.418884,155.647415 264.809814,155.245483 
z"/>
<path fill="#0AB0CC" opacity="1.000000" stroke="none" 
	d="
M201.751297,262.440796 
	C204.825714,269.635956 206.143692,276.912964 208.145966,284.392639 
	C209.734207,289.001801 207.813019,291.943146 204.649368,294.431488 
	C203.108368,295.643524 201.537689,296.222961 199.617950,294.313110 
	C199.217377,293.558533 199.074814,293.125916 198.939117,292.349274 
	C198.321930,291.286804 198.600739,290.381104 198.269913,289.297485 
	C196.318405,282.354156 194.537186,275.679962 192.762268,268.598267 
	C192.201019,265.901611 191.789749,263.611969 194.255524,262.108124 
	C196.618698,260.666870 199.045700,260.008789 201.751297,262.440796 
z"/>
<path fill="#0CA350" opacity="1.000000" stroke="none" 
	d="
M115.660851,251.606857 
	C110.425201,258.695892 103.881386,264.285126 97.778877,270.292206 
	C95.401047,272.632874 92.250320,272.897369 89.824356,270.193115 
	C87.325745,267.407867 87.717728,264.577484 90.465347,261.910431 
	C95.807678,256.724792 101.026749,251.412155 106.611160,246.033966 
	C108.638794,244.974503 110.428719,244.554276 111.403679,246.708405 
	C112.325897,248.745972 114.473824,249.498337 115.660851,251.606857 
z"/>
<path fill="#D6DC27" opacity="1.000000" stroke="none" 
	d="
M108.548676,151.690002 
	C101.685966,148.059860 95.195877,144.430176 88.753113,140.718323 
	C85.561363,138.879486 84.250961,136.067123 86.202560,132.781097 
	C88.134506,129.528198 91.167328,129.251129 94.401070,131.112030 
	C100.464203,134.601151 106.531227,138.083511 112.816910,141.833069 
	C113.291786,142.295578 113.529510,142.512238 113.970688,142.845764 
	C114.191032,142.944122 114.073204,142.927460 114.094528,142.871918 
	C115.114891,147.473969 113.967285,149.434357 108.548676,151.690002 
z"/>
<path fill="#C65499" opacity="1.000000" stroke="none" 
	d="
M227.950638,104.519981 
	C223.364594,112.806671 218.892578,120.753860 214.151123,128.934998 
	C212.022888,130.889511 210.047501,132.783508 207.398315,130.979507 
	C205.135315,129.438492 203.547104,127.300095 204.824127,123.828308 
	C207.892334,116.281685 212.375214,109.997040 216.416519,103.114159 
	C220.610947,102.035583 224.561295,101.114853 227.950638,104.519981 
z"/>
<path fill="#28549D" opacity="1.000000" stroke="none" 
	d="
M269.566833,204.348068 
	C276.747833,205.039993 283.108826,207.554291 289.662781,209.285828 
	C293.009949,210.170135 293.636261,213.198639 292.879303,216.169678 
	C292.034485,219.485611 289.344971,220.584290 286.259460,219.837967 
	C279.337128,218.163635 272.481812,216.212372 265.328491,214.126572 
	C262.851288,208.782730 263.891602,206.405975 269.566833,204.348068 
z"/>
<path fill="#28549D" opacity="1.000000" stroke="none" 
	d="
M244.070099,245.709656 
	C250.129166,251.134613 255.883743,256.620483 261.439911,262.300446 
	C263.829254,264.742981 264.060822,267.826538 261.548065,270.292419 
	C259.079468,272.714935 256.168243,272.671875 253.581238,270.139618 
	C249.082443,265.736023 244.613678,261.301697 240.025574,256.570160 
	C239.614090,252.225342 242.672363,249.407288 244.070099,245.709656 
z"/>
<path fill="#C65499" opacity="1.000000" stroke="none" 
	d="
M253.016388,114.568542 
	C248.188248,119.827019 243.450989,124.731194 238.645370,129.567429 
	C235.927231,132.302856 232.730286,133.112045 229.892059,130.098770 
	C227.077835,127.110992 228.067902,124.041702 230.858932,121.356644 
	C234.698013,117.663315 238.473328,113.903717 242.572098,110.018196 
	C247.033127,109.505684 250.186905,111.536194 253.016388,114.568542 
z"/>
<path fill="#78BB47" opacity="1.000000" stroke="none" 
	d="
M86.105133,165.622879 
	C78.011581,164.684875 70.395828,161.877762 62.573692,159.872070 
	C59.288498,159.029724 57.423473,156.585648 58.381748,153.109512 
	C59.387524,149.461060 62.212002,148.251144 65.782021,149.168991 
	C71.653854,150.678604 77.487190,152.337952 83.713135,154.092316 
	C82.930840,158.282135 85.533012,161.598175 86.105133,165.622879 
z"/>
<path fill="#0CA350" opacity="1.000000" stroke="none" 
	d="
M85.931145,213.640320 
	C79.202766,215.917023 72.389870,217.979935 65.508774,219.782471 
	C62.150585,220.662170 59.521519,219.314362 58.502045,215.878525 
	C57.434895,212.282013 59.365528,210.051620 62.592735,209.073029 
	C67.512833,207.581070 72.523972,206.389313 77.905190,205.104324 
	C82.739815,206.100189 83.230263,210.671997 85.931145,213.640320 
z"/>
<path fill="#0AB0CC" opacity="1.000000" stroke="none" 
	d="
M180.723083,264.523590 
	C181.003006,270.553467 181.089264,276.180573 181.158905,281.807922 
	C181.205948,285.607513 179.309677,287.968567 175.533432,287.875641 
	C172.068909,287.790375 170.215714,285.541718 170.214828,281.960297 
	C170.213364,275.994385 170.194595,270.028442 170.283508,263.615417 
	C174.945236,260.604706 177.578720,260.852142 180.723083,264.523590 
z"/>
<path fill="#0AB0CC" opacity="1.000000" stroke="none" 
	d="
M221.612488,253.976578 
	C224.417389,258.009247 226.933228,261.902466 229.195557,265.937866 
	C230.984848,269.129456 230.579697,272.219330 227.216156,274.078918 
	C223.790970,275.972565 221.108261,274.407349 219.281387,271.311005 
	C217.087936,267.593292 215.038315,263.790771 212.868713,259.679321 
	C213.221619,253.826309 217.712738,254.627518 221.612488,253.976578 
z"/>
<path fill="#E14046" opacity="1.000000" stroke="none" 
	d="
M170.707825,104.825531 
	C170.289001,98.835632 170.136826,92.863487 170.185333,86.892982 
	C170.213470,83.430893 172.006271,81.074715 175.615173,81.071915 
	C179.489212,81.068916 181.181396,83.518700 181.172653,87.249268 
	C181.163284,91.235512 181.138046,95.221710 181.020584,99.675827 
	C180.569107,103.234344 178.828903,104.568268 175.753662,104.282303 
	C174.156708,104.133797 172.536804,103.935883 170.707825,104.825531 
z"/>
<path fill="#EBEC88" opacity="1.000000" stroke="none" 
	d="
M95.824753,179.505112 
	C100.635704,179.125824 105.290085,178.969101 109.943344,178.997391 
	C113.732773,179.020432 117.121849,180.179565 116.910614,184.703751 
	C116.722626,188.730011 113.901176,190.191284 109.970360,190.079575 
	C103.320885,189.890594 96.665115,189.923050 89.549927,189.829773 
	C88.984421,189.588654 88.880997,189.380157 88.974335,188.884109 
	C94.024918,187.654053 95.445755,184.173950 95.824753,179.505112 
z"/>
<path fill="#09ABAF" opacity="1.000000" stroke="none" 
	d="
M142.772034,286.420654 
	C142.989700,285.887604 143.001144,285.693787 143.084885,285.217896 
	C143.390900,284.697632 143.573303,284.425140 143.614441,283.888367 
	C145.010712,277.934265 146.496887,272.210022 148.177078,266.137390 
	C148.605392,265.797974 148.839676,265.806946 149.311874,266.073120 
	C150.697998,268.566772 149.256561,270.810425 149.618378,273.569183 
	C151.598587,271.517944 154.194901,273.281860 156.584045,271.961670 
	C158.110092,276.832550 155.259720,280.912262 154.451706,285.360748 
	C153.957123,288.083527 152.941391,290.711639 152.028320,293.743103 
	C149.005020,295.868011 144.831848,294.225311 143.179550,290.581451 
	C142.643890,289.400085 142.399200,288.093201 142.772034,286.420654 
z"/>
<path fill="#7B5DA1" opacity="1.000000" stroke="none" 
	d="
M258.644806,179.470093 
	C263.716797,179.102219 268.516144,179.066467 273.315399,179.024872 
	C277.012390,178.992813 278.907410,181.074707 278.997406,184.515274 
	C279.093567,188.191223 276.694977,189.842773 273.255402,189.929047 
	C268.454041,190.049500 263.648499,190.001846 258.377930,189.940338 
	C257.061310,186.456924 257.211243,183.105133 258.644806,179.470093 
z"/>
<path fill="#E17A47" opacity="1.000000" stroke="none" 
	d="
M110.193489,126.115349 
	C104.964050,121.413864 100.008545,116.521103 94.881561,111.329407 
	C96.579109,106.952888 99.592384,104.865067 104.528473,105.808334 
	C108.760895,109.843048 112.674957,113.636726 116.714058,117.739861 
	C116.718948,119.802544 115.878792,121.175430 114.282974,121.814621 
	C112.306419,122.606300 111.394867,124.237839 110.193489,126.115349 
z"/>
<path fill="#D6DC27" opacity="1.000000" stroke="none" 
	d="
M86.359680,166.105438 
	C83.404984,163.194092 83.611145,159.115204 81.433151,156.069351 
	C80.837334,155.236099 82.805855,155.131989 83.826797,154.446915 
	C88.384827,155.383896 92.687675,156.489700 96.973091,157.659393 
	C100.471062,158.614166 102.589661,160.818008 101.572952,164.537064 
	C100.506485,168.438126 97.601784,169.447067 93.811928,168.253662 
	C91.463211,167.514069 89.070908,166.912933 86.359680,166.105438 
z"/>
<path fill="#E17A47" opacity="1.000000" stroke="none" 
	d="
M131.942017,119.122833 
	C129.127640,114.727730 126.675980,110.587547 124.148514,106.096626 
	C124.379616,101.449692 127.250450,99.787994 133.449066,100.783829 
	C136.140015,105.125656 138.514420,109.185532 141.009689,113.581024 
	C139.789520,119.230042 137.544434,120.619225 131.942017,119.122833 
z"/>
<path fill="#78BB47" opacity="1.000000" stroke="none" 
	d="
M86.432281,213.950500 
	C81.973961,212.611465 82.422737,207.276428 78.503448,205.382614 
	C83.438469,203.695587 88.563011,202.252609 94.052635,200.908096 
	C96.971504,199.987213 98.752548,201.181229 99.670860,203.351883 
	C100.805893,206.034805 100.307663,208.583038 97.409348,210.681152 
	C93.868362,212.751740 90.212257,212.900009 86.432281,213.950500 
z"/>
<path fill="#7B5DA1" opacity="1.000000" stroke="none" 
	d="
M269.595764,204.097076 
	C266.766418,206.308609 264.169830,208.729645 265.051270,213.478241 
	C261.530121,213.065445 257.997803,212.271149 254.476089,211.432510 
	C250.526031,210.491882 248.871979,207.827225 249.921173,204.060913 
	C250.943909,200.389618 253.833984,199.485565 257.370361,200.512131 
	C261.325684,201.660324 265.277618,202.820221 269.595764,204.097076 
z"/>
<path fill="#BFC1DD" opacity="1.000000" stroke="none" 
	d="
M236.267670,213.661682 
	C240.698105,214.981476 243.920563,217.621948 247.737640,219.878738 
	C250.357666,224.173080 246.920868,226.916748 245.338867,230.433014 
	C240.453766,228.154648 235.899155,225.609665 231.138901,222.823029 
	C229.682388,217.574432 230.406555,216.245407 236.267670,213.661682 
z"/>
<path fill="#09ABAF" opacity="1.000000" stroke="none" 
	d="
M138.761139,258.578613 
	C136.674500,263.907593 133.836868,268.496460 130.480072,273.128448 
	C125.585686,273.576599 122.400513,270.075989 123.357300,265.678650 
	C123.635300,264.401031 124.345070,263.226318 124.770203,261.533691 
	C126.133484,259.245911 127.286606,257.331726 128.696442,255.204041 
	C133.122650,253.225998 135.779266,256.022491 138.761139,258.578613 
z"/>
<path fill="#60C2CF" opacity="1.000000" stroke="none" 
	d="
M221.954102,253.702148 
	C219.474350,256.395294 214.989563,254.973328 212.976990,258.990082 
	C210.253647,255.162949 207.696320,250.992172 205.031616,246.495682 
	C206.617386,241.627274 210.146927,240.821533 214.755737,241.744385 
	C217.366745,245.770126 219.632019,249.559875 221.954102,253.702148 
z"/>
<path fill="#BFC1DD" opacity="1.000000" stroke="none" 
	d="
M250.363770,189.643478 
	C246.642776,189.908951 243.312637,190.092972 239.990585,189.997101 
	C236.392105,189.893250 234.408035,187.747849 234.525818,184.253815 
	C234.634659,181.025879 236.558609,179.045578 239.971481,179.003189 
	C242.966019,178.965988 245.962097,179.053192 249.408936,179.126907 
	C253.210999,182.325073 253.398376,185.758316 250.363770,189.643478 
z"/>
<path fill="#EBEC88" opacity="1.000000" stroke="none" 
	d="
M108.435295,151.923569 
	C111.085983,149.710358 113.866684,147.589996 114.072716,143.198853 
	C117.023033,144.372177 120.019676,145.784225 122.813286,147.522552 
	C125.856743,149.416367 126.397324,152.398682 124.629150,155.283417 
	C122.973572,157.984451 120.228470,158.724197 117.277351,157.107376 
	C114.381882,155.521027 111.565269,153.790787 108.435295,151.923569 
z"/>
<path fill="#78BB47" opacity="1.000000" stroke="none" 
	d="
M89.387444,188.637360 
	C89.435005,188.974564 89.270279,189.389389 89.179062,189.593262 
	C85.431961,189.858368 81.773720,190.028564 78.120865,189.949570 
	C74.606796,189.873566 72.304596,187.932297 72.350342,184.407913 
	C72.395607,180.920731 74.611145,179.013840 78.210701,178.990692 
	C80.875923,178.973557 83.541260,178.974777 86.664902,179.060516 
	C88.077461,182.150024 87.906731,185.419434 89.387444,188.637360 
z"/>
<path fill="#7B5DA1" opacity="1.000000" stroke="none" 
	d="
M245.181091,230.952271 
	C244.288132,226.903214 248.423859,224.578339 247.995270,220.478210 
	C252.455765,222.587036 256.908691,225.085663 261.592224,227.816650 
	C259.643524,230.921936 259.031586,235.168808 254.374634,236.019806 
	C251.144272,234.318924 248.249039,232.761902 245.181091,230.952271 
z"/>
<path fill="#EBEC88" opacity="1.000000" stroke="none" 
	d="
M142.781677,117.565414 
	C144.804779,120.171776 146.578598,122.908020 148.188553,125.737495 
	C149.945114,128.824661 149.380402,131.787094 146.365768,133.491837 
	C143.496231,135.114532 140.551392,134.629929 138.671738,131.423111 
	C137.161469,128.846542 135.677765,126.254387 134.117645,123.324249 
	C136.678345,120.947754 140.452438,120.758247 142.781677,117.565414 
z"/>
<path fill="#0CA350" opacity="1.000000" stroke="none" 
	d="
M100.754410,233.340530 
	C98.915588,235.955109 96.265152,236.965225 93.822830,238.214066 
	C90.811661,239.753799 87.971970,239.366409 86.177994,236.222885 
	C84.259491,232.861130 85.592781,230.229980 88.571167,228.278015 
	C89.935966,227.383591 91.442352,226.705231 93.223099,225.902328 
	C97.834023,225.416000 99.402184,226.956726 100.754410,233.340530 
z"/>
<path fill="#C65499" opacity="1.000000" stroke="none" 
	d="
M263.333679,155.615448 
	C264.469299,159.336563 260.985291,162.313858 261.963257,166.463150 
	C260.214172,167.411545 258.485870,168.007385 256.722229,168.467758 
	C253.459152,169.319550 250.986526,168.114380 250.068726,164.946609 
	C249.125061,161.689636 250.178009,158.937653 253.748596,157.889771 
	C256.774506,157.001785 259.868591,156.346222 263.333679,155.615448 
z"/>
<path fill="#E14046" opacity="1.000000" stroke="none" 
	d="
M253.254639,114.823044 
	C249.813049,113.367325 246.671982,111.783356 243.199570,110.031639 
	C245.649460,106.963951 248.430664,104.064011 251.515411,101.033440 
	C252.136017,100.762016 252.420258,100.572128 252.815216,100.118240 
	C252.958725,99.903366 252.918701,99.968613 252.906616,99.932297 
	C255.967239,98.342300 257.356873,100.592827 258.807404,102.567787 
	C260.759155,105.225159 259.653076,107.452881 257.463043,109.863327 
	C257.233490,110.212189 257.148468,110.184547 257.171326,110.146141 
	C256.776367,110.340294 256.524689,110.691833 256.252991,111.449852 
	C255.229599,112.723175 254.392365,113.708984 253.254639,114.823044 
z"/>
<path fill="#D6DC27" opacity="1.000000" stroke="none" 
	d="
M110.085892,126.585144 
	C109.955910,123.771309 109.770294,120.998779 113.455612,121.007668 
	C115.540848,121.012695 115.048889,118.786232 116.566605,118.096176 
	C118.292313,119.376854 119.836693,120.618881 121.179085,122.050354 
	C123.698227,124.736671 123.990051,127.720596 121.271431,130.338318 
	C118.719345,132.795670 115.905869,132.402222 113.380211,130.010544 
	C112.306793,128.994064 111.293083,127.914536 110.085892,126.585144 
z"/>
<path fill="#BFC1DD" opacity="1.000000" stroke="none" 
	d="
M134.875549,245.192245 
	C136.166275,242.132187 137.411041,239.158264 139.290329,236.662064 
	C141.265411,234.038666 144.268509,233.868011 146.840424,235.774185 
	C149.173798,237.503540 150.018005,239.857697 148.028015,242.672073 
	C146.834427,244.360123 146.045303,246.334183 144.946594,248.518372 
	C141.407410,248.237640 138.509933,246.136810 134.875549,245.192245 
z"/>
<path fill="#BFC1DD" opacity="1.000000" stroke="none" 
	d="
M170.628021,255.224991 
	C170.248352,252.945847 170.056046,250.952286 170.061829,248.959320 
	C170.072479,245.294769 172.402618,243.357941 175.651520,243.222870 
	C178.815109,243.091339 180.974945,245.053558 181.139191,248.454712 
	C181.259537,250.946472 181.119476,253.450821 181.023560,256.390503 
	C177.529968,256.944336 174.159088,256.670929 170.628021,255.224991 
z"/>
<path fill="#0AB0CC" opacity="1.000000" stroke="none" 
	d="
M157.100891,271.711121 
	C156.381851,273.177704 155.846603,274.333191 155.166794,275.800720 
	C153.592148,273.979065 151.862915,271.175568 150.448730,275.729584 
	C150.276871,276.283020 149.502823,276.862213 148.850311,276.379425 
	C148.414337,276.056824 148.027435,275.296967 148.066391,274.765594 
	C148.269775,271.991272 148.616516,269.227478 148.844040,265.701355 
	C148.769073,264.739105 148.763458,264.535553 148.909119,264.066589 
	C152.770172,259.478210 156.036346,259.610687 159.548126,264.605957 
	C158.878098,267.126923 158.081390,269.263458 157.100891,271.711121 
z"/>
<path fill="#09ABAF" opacity="1.000000" stroke="none" 
	d="
M199.347855,294.352112 
	C204.051910,295.109100 207.737671,291.561066 208.105637,285.204041 
	C209.086044,288.097443 210.223511,291.365387 210.889359,294.726776 
	C211.526169,297.941681 210.649887,300.867615 207.018127,301.669159 
	C203.363632,302.475708 201.002319,300.692322 200.022766,297.092346 
	C199.806076,296.295929 199.565399,295.506012 199.347855,294.352112 
z"/>
<path fill="#E14046" opacity="1.000000" stroke="none" 
	d="
M228.092804,104.641190 
	C224.728821,102.072617 220.659973,104.771179 217.018188,102.964050 
	C217.317398,101.587181 217.900146,100.232811 218.631073,98.963776 
	C221.329208,94.279221 224.381226,92.844864 227.591965,95.037682 
	C231.538513,97.733025 230.656311,101.083672 228.092804,104.641190 
z"/>
<path fill="#0CA350" opacity="1.000000" stroke="none" 
	d="
M142.735352,286.349335 
	C143.573654,291.030914 146.205093,293.928833 151.599548,294.223114 
	C151.593567,295.538086 151.499130,297.059448 150.944458,298.388763 
	C149.689941,301.395264 147.210007,302.692444 144.140488,301.742065 
	C141.125092,300.808411 139.594604,298.426697 140.239471,295.200165 
	C140.818161,292.304749 141.728455,289.475586 142.735352,286.349335 
z"/>
<path fill="#BFC1DD" opacity="1.000000" stroke="none" 
	d="
M104.295761,220.097672 
	C107.149582,217.877457 110.181892,215.969971 113.555290,213.992340 
	C116.655708,216.251968 120.270485,218.034866 119.266823,222.980957 
	C116.929832,224.603973 114.796318,225.886429 112.333015,227.304642 
	C109.543159,227.312607 107.334991,226.830505 107.136276,223.747910 
	C107.023216,221.993881 105.583420,221.344788 104.295761,220.097672 
z"/>
<path fill="#C65499" opacity="1.000000" stroke="none" 
	d="
M193.714020,96.376068 
	C194.461639,98.488205 192.253296,101.887093 195.929260,102.856415 
	C198.987350,103.662819 202.185501,103.405510 203.716766,99.411865 
	C203.509521,101.560349 203.207504,103.867958 202.545181,106.067047 
	C201.490112,109.570183 199.092850,111.443474 195.393188,110.303764 
	C192.024796,109.266090 190.844742,106.699951 191.751526,103.254532 
	C192.340485,101.016754 192.936935,98.780945 193.714020,96.376068 
z"/>
<path fill="#FAFAFA" opacity="1.000000" stroke="none" 
	d="
M119.403648,223.211395 
	C119.645370,219.119141 114.972664,217.948334 113.969376,214.270309 
	C115.122604,212.510300 116.835663,211.879395 118.510117,211.354416 
	C121.265640,210.490479 123.580559,211.551590 124.779388,214.039215 
	C125.887573,216.338776 126.151672,218.782211 123.226021,220.379242 
	C121.950203,221.075684 120.897812,222.181412 119.403648,223.211395 
z"/>
<path fill="#60C2CF" opacity="1.000000" stroke="none" 
	d="
M232.219604,248.129364 
	C227.829254,244.508682 227.167816,241.402115 229.856094,238.693787 
	C232.662750,235.866165 235.902786,236.691483 240.808868,241.711563 
	C241.320572,242.357925 241.503052,242.781052 241.420898,243.605865 
	C238.498764,245.535080 235.513870,246.765030 232.219604,248.129364 
z"/>
<path fill="#BFC1DD" opacity="1.000000" stroke="none" 
	d="
M215.023865,241.621002 
	C211.663742,242.631561 208.141907,243.076950 205.252289,246.020874 
	C203.608078,245.094757 203.201401,243.531677 202.661942,242.025986 
	C201.507767,238.804565 202.769699,236.329788 205.600616,235.145782 
	C208.350922,233.995514 211.132919,234.594788 212.846939,237.505554 
	C213.574570,238.741196 214.248138,240.008652 215.023865,241.621002 
z"/>
<path fill="#60C2CF" opacity="1.000000" stroke="none" 
	d="
M134.370880,245.091766 
	C138.304428,244.875519 141.884644,245.075058 144.548523,248.664566 
	C143.458664,251.281708 142.098495,253.706360 140.466614,256.359100 
	C137.197357,255.132599 134.292145,253.463486 130.745834,252.364319 
	C131.678757,249.821884 132.888977,247.554657 134.370880,245.091766 
z"/>
<path fill="#D6DC27" opacity="1.000000" stroke="none" 
	d="
M89.799637,189.013336 
	C85.959877,186.662079 86.413658,183.199310 86.932236,179.463379 
	C89.786217,179.110992 92.449188,179.068771 95.546982,179.114563 
	C97.933899,185.082199 95.890633,188.541611 89.799637,189.013336 
z"/>
<path fill="#0AB0CC" opacity="1.000000" stroke="none" 
	d="
M232.010025,248.504974 
	C234.003372,245.199493 237.111221,244.181915 240.886444,244.019470 
	C242.178314,244.189743 242.851196,244.895233 244.000504,245.369873 
	C244.333145,245.453827 244.415390,245.492371 244.435196,245.531219 
	C244.523804,249.542633 242.700241,252.706116 240.048950,255.915680 
	C237.325943,253.776901 234.733047,251.293777 232.010025,248.504974 
z"/>
<path fill="#E14046" opacity="1.000000" stroke="none" 
	d="
M133.716278,100.725159 
	C130.096558,101.283096 126.474632,101.613419 124.115120,105.409256 
	C123.290741,104.518585 122.376175,103.354645 121.753494,102.051254 
	C120.304298,99.017830 121.326004,96.539078 124.024681,94.891846 
	C126.635582,93.298195 129.146393,94.058632 131.077560,96.231972 
	C132.145660,97.434021 132.816833,98.988770 133.716278,100.725159 
z"/>
<path fill="#C65499" opacity="1.000000" stroke="none" 
	d="
M250.404144,189.946686 
	C251.661880,186.556747 251.205338,183.249542 249.951141,179.552765 
	C252.583817,179.125015 255.307281,179.081665 258.474121,179.089401 
	C258.799866,182.482040 259.673096,185.884293 258.107819,189.501892 
	C255.553757,189.918076 253.196335,189.981613 250.404144,189.946686 
z"/>
<path fill="#60C2CF" opacity="1.000000" stroke="none" 
	d="
M170.248672,255.380798 
	C173.661026,255.564789 177.361832,253.551102 180.645447,256.625305 
	C180.997284,259.239014 181.042938,261.646576 181.006210,264.490204 
	C178.193741,261.665649 174.499649,263.469025 170.803452,263.123901 
	C170.304611,260.719696 170.225327,258.271057 170.248672,255.380798 
z"/>
<path fill="#28549D" opacity="1.000000" stroke="none" 
	d="
M254.276001,236.144531 
	C255.992233,235.119797 257.644501,233.860962 257.757965,231.716736 
	C257.891510,229.193619 259.619171,228.993011 261.584320,228.300354 
	C265.733063,229.375092 266.989868,232.215393 265.387268,235.783737 
	C263.676392,239.593185 260.456055,239.675766 257.048065,237.934738 
	C256.172302,237.487366 255.356064,236.923492 254.276001,236.144531 
z"/>
<path fill="#E17A47" opacity="1.000000" stroke="none" 
	d="
M147.852493,101.390289 
	C150.543701,101.613663 152.918457,103.037064 155.708939,103.460335 
	C157.809509,103.778961 157.773163,102.472221 158.635223,101.240616 
	C160.720673,106.297325 159.880615,109.261475 155.985504,110.249916 
	C151.311386,111.436035 149.444778,108.575363 148.548920,104.596985 
	C148.332733,103.636902 148.077072,102.685707 147.852493,101.390289 
z"/>
<path fill="#E14046" opacity="1.000000" stroke="none" 
	d="
M104.744476,105.741837 
	C100.778618,105.847916 98.253624,108.635086 95.083885,110.964020 
	C94.410538,111.046494 94.185905,110.924500 93.993683,110.467636 
	C93.803543,109.929016 93.606636,109.619110 93.126732,109.185120 
	C92.900566,109.024261 92.966423,109.063225 92.940430,109.091309 
	C92.117401,107.130745 90.070984,105.332916 92.282684,102.760246 
	C93.030083,102.527863 93.488380,102.536560 93.779030,102.876091 
	C94.036621,103.177010 94.075317,103.350403 94.032677,103.261520 
	C94.018463,103.231895 93.941650,103.112404 93.842712,102.532333 
	C94.583717,100.100838 96.281143,99.761978 98.608749,100.056236 
	C100.849251,101.883301 102.745682,103.658806 104.744476,105.741837 
z"/>
<path fill="#09ABAF" opacity="1.000000" stroke="none" 
	d="
M115.944153,251.655914 
	C113.413597,250.505280 110.026314,250.183929 109.884125,246.349777 
	C109.877945,246.183197 108.405060,246.071030 107.270432,245.924652 
	C108.366188,244.363708 109.806923,242.811615 111.549179,241.159851 
	C115.726082,241.216949 118.346581,243.430389 120.612793,246.701553 
	C119.656593,249.000397 118.005547,250.307938 115.944153,251.655914 
z"/>
<path fill="#BFC1DD" opacity="1.000000" stroke="none" 
	d="
M230.422119,146.774567 
	C231.937561,149.852905 233.535278,152.751343 235.866577,155.580505 
	C232.583130,158.448395 229.101059,159.088318 226.756104,155.053772 
	C224.647263,151.425491 226.298752,148.513062 230.422119,146.774567 
z"/>
<path fill="#60C2CF" opacity="1.000000" stroke="none" 
	d="
M121.011688,246.828140 
	C117.912117,245.208054 115.130554,243.370041 112.099854,241.296112 
	C114.000000,237.879517 116.747292,235.619141 120.513191,238.100021 
	C123.885254,240.321442 123.929695,243.492889 121.011688,246.828140 
z"/>
<path fill="#60C2CF" opacity="1.000000" stroke="none" 
	d="
M103.835388,219.827057 
	C106.544495,220.184708 109.872711,219.503830 108.550568,224.008163 
	C107.742790,226.760147 110.950066,225.467865 111.841255,227.102356 
	C109.615265,228.850830 107.227318,230.261276 104.478790,231.779083 
	C101.879906,229.236557 102.606827,225.222351 100.021088,222.387421 
	C101.261703,221.288986 102.407600,220.579071 103.835388,219.827057 
z"/>
<path fill="#BFC1DD" opacity="1.000000" stroke="none" 
	d="
M180.519440,116.895920 
	C181.253159,118.925179 181.577484,120.978340 180.594376,122.742432 
	C179.412094,124.863930 177.431107,126.195526 174.886963,125.665565 
	C171.215515,124.900764 169.842575,122.368256 170.328568,118.378510 
	C173.511215,116.252487 177.065491,118.403893 180.519440,116.895920 
z"/>
<path fill="#78BB47" opacity="1.000000" stroke="none" 
	d="
M99.764694,222.036697 
	C104.908203,223.428375 103.930313,227.412781 104.089111,231.396606 
	C103.517349,233.160431 102.149139,232.854950 100.955353,233.530945 
	C98.882439,230.924652 98.095131,227.225403 93.963882,225.904892 
	C95.512299,224.608673 97.462936,223.341583 99.764694,222.036697 
z"/>
<path fill="#E17A47" opacity="1.000000" stroke="none" 
	d="
M257.566010,110.144714 
	C259.374634,105.627998 258.832458,101.989029 253.263733,99.943298 
	C255.146866,96.498192 258.024963,95.841278 261.249542,98.349083 
	C264.112152,100.575363 263.859131,104.108589 260.800903,107.390045 
	C259.904449,108.351959 258.869843,109.185081 257.566010,110.144714 
z"/>
<path fill="#FAFAFA" opacity="1.000000" stroke="none" 
	d="
M236.503952,213.399292 
	C234.617477,216.242981 230.567093,217.395432 230.955673,222.158752 
	C227.044525,221.034805 224.749863,218.508896 226.535034,214.158783 
	C227.946747,210.718781 231.416321,210.447983 236.503952,213.399292 
z"/>
<path fill="#E17A47" opacity="1.000000" stroke="none" 
	d="
M98.784103,99.791351 
	C97.805664,101.633621 95.333748,100.473198 94.163116,102.713440 
	C89.996651,104.154289 93.805283,106.679855 92.948776,108.736343 
	C92.258980,108.625664 91.567978,108.172256 90.954117,107.631325 
	C88.106186,105.121712 86.803230,102.082138 89.589096,98.966713 
	C92.522781,95.685959 95.762390,96.435280 98.784103,99.791351 
z"/>
<path fill="#E17A47" opacity="1.000000" stroke="none" 
	d="
M170.271790,105.270264 
	C170.980911,102.594826 172.482117,102.775932 174.392349,102.918007 
	C176.584152,103.081017 179.460327,104.103874 180.660736,100.384415 
	C180.999252,102.445320 181.077072,104.746925 181.090118,107.479752 
	C179.871964,109.352661 178.163910,109.225784 176.592224,109.462624 
	C174.765717,109.737869 173.113037,110.260841 172.164917,112.476715 
	C171.768143,113.211014 171.451218,113.562851 170.719009,113.924919 
	C170.304337,111.236176 170.245468,108.484810 170.271790,105.270264 
z"/>
<path fill="#EBEC88" opacity="1.000000" stroke="none" 
	d="
M170.315201,114.389969 
	C170.619934,114.046837 170.800400,113.955467 170.944580,113.553925 
	C173.868164,110.551819 177.032730,110.973396 180.636078,112.972534 
	C180.996536,114.324265 181.021271,115.296013 180.959839,116.621506 
	C177.990677,120.513756 174.534836,118.743958 170.811432,118.010071 
	C170.376389,116.930878 170.321793,115.861641 170.315201,114.389969 
z"/>
<path fill="#BFC1DD" opacity="1.000000" stroke="none" 
	d="
M204.633194,123.638924 
	C206.063843,130.112457 207.658096,131.219788 213.540482,129.163559 
	C212.533524,132.425964 210.469467,134.712265 206.576599,134.043030 
	C203.986130,133.597733 202.749680,131.712082 202.403931,129.250687 
	C202.109863,127.157227 203.355026,125.538704 204.633194,123.638924 
z"/>
<path fill="#D6DC27" opacity="1.000000" stroke="none" 
	d="
M143.076569,117.104141 
	C142.420502,122.302505 138.736969,122.772758 134.459198,122.972122 
	C133.308395,121.830765 132.563766,120.682175 131.699203,119.200745 
	C135.750717,119.760796 138.439743,117.495995 140.966858,114.227142 
	C141.770340,114.882370 142.410156,115.848106 143.076569,117.104141 
z"/>
<path fill="#0CA350" opacity="1.000000" stroke="none" 
	d="
M124.749146,261.395142 
	C125.088120,264.276001 123.126953,267.436523 125.618675,270.536072 
	C126.709465,271.892944 127.592735,273.076263 129.806580,273.227417 
	C127.931007,275.849152 125.454704,275.330383 123.150856,273.545410 
	C120.689430,271.638367 120.514053,269.085968 121.872826,266.409576 
	C122.696564,264.787018 123.632416,263.221405 124.749146,261.395142 
z"/>
<path fill="#C65499" opacity="1.000000" stroke="none" 
	d="
M181.076843,112.900757 
	C177.938766,113.286827 174.905746,113.221146 171.428650,113.274948 
	C170.883926,106.267097 176.429596,108.645424 180.587524,107.930679 
	C181.077545,109.423653 181.129730,110.936333 181.076843,112.900757 
z"/>
<path fill="#60C2CF" opacity="1.000000" stroke="none" 
	d="
M202.067795,262.430969 
	C196.026672,261.049042 193.817230,262.151550 192.798401,267.785767 
	C191.256485,264.800659 190.410278,261.293121 194.433472,259.204285 
	C197.651978,257.533264 200.543549,258.428955 202.067795,262.430969 
z"/>
<path fill="#0AB0CC" opacity="1.000000" stroke="none" 
	d="
M130.260941,252.266327 
	C134.193756,251.874161 137.652466,252.320282 140.026367,256.231018 
	C139.903137,257.258636 139.611359,257.930054 139.100922,258.777557 
	C135.823853,257.636597 132.765457,256.319580 129.330093,254.996552 
	C129.319885,254.141525 129.686630,253.292542 130.260941,252.266327 
z"/>
<path fill="#60C2CF" opacity="1.000000" stroke="none" 
	d="
M159.788635,264.626709 
	C156.753357,261.788574 153.561600,260.407715 149.382355,263.655731 
	C149.095886,260.268921 151.183624,258.614929 154.413132,258.564514 
	C158.065826,258.507477 159.745819,260.748474 159.788635,264.626709 
z"/>
<path fill="#EBEC88" opacity="1.000000" stroke="none" 
	d="
M97.377625,210.899719 
	C99.092026,207.071548 100.722336,203.310608 94.820435,200.913605 
	C97.863091,199.439194 100.186340,200.916458 101.333870,204.059677 
	C102.548927,207.387878 100.993874,209.694901 97.377625,210.899719 
z"/>
<path fill="#28549D" opacity="1.000000" stroke="none" 
	d="
M244.234863,245.170517 
	C243.139984,246.140198 242.278717,245.618637 241.364410,244.420776 
	C241.134933,243.676483 241.072037,243.195251 241.006989,242.351685 
	C242.048752,242.955292 243.092682,243.921249 244.234863,245.170517 
z"/>
<path fill="#09ABAF" opacity="1.000000" stroke="none" 
	d="
M198.064941,289.347534 
	C198.932220,289.594757 199.019867,290.453339 198.978149,291.677643 
	C198.640747,291.225708 198.335495,290.446198 198.064941,289.347534 
z"/>
<path fill="#E17A47" opacity="1.000000" stroke="none" 
	d="
M256.321960,111.637871 
	C256.271271,111.258080 256.475708,110.778770 256.937195,110.203598 
	C256.988495,110.584610 256.782776,111.061485 256.321960,111.637871 
z"/>
<path fill="#E17A47" opacity="1.000000" stroke="none" 
	d="
M252.695831,99.971268 
	C252.747009,100.180443 252.535309,100.457520 252.071259,100.818695 
	C252.023605,100.614922 252.228271,100.327049 252.695831,99.971268 
z"/>
<path fill="#BFC1DD" opacity="1.000000" stroke="none" 
	d="
M231.595581,146.009125 
	C231.759933,146.247971 231.579208,146.515182 231.117325,146.862442 
	C231.045761,146.689163 231.183868,146.387512 231.595581,146.009125 
z"/>
<path fill="#C65499" opacity="1.000000" stroke="none" 
	d="
M264.710571,155.108398 
	C264.840240,155.397873 264.610718,155.621658 264.083862,155.857086 
	C264.042358,155.662674 264.230621,155.387344 264.710571,155.108398 
z"/>
<path fill="#60C2CF" opacity="1.000000" stroke="none" 
	d="
M148.622147,265.028168 
	C148.774704,264.942657 148.784027,265.264557 148.787949,265.420532 
	C148.791870,265.576477 148.593170,265.707886 148.482132,265.748444 
	C148.295044,265.547882 148.327881,265.322784 148.622147,265.028168 
z"/>
<path fill="#E17A47" opacity="1.000000" stroke="none" 
	d="
M92.972656,109.303604 
	C93.191391,109.257980 93.482216,109.491699 93.862106,109.998108 
	C93.649040,110.041512 93.346886,109.812225 92.972656,109.303604 
z"/>
<path fill="#0CA350" opacity="1.000000" stroke="none" 
	d="
M143.373322,283.838745 
	C143.527359,283.975647 143.530151,284.292847 143.345062,284.772888 
	C143.048630,284.620972 143.070267,284.315399 143.373322,283.838745 
z"/>
<path fill="#EBEC88" opacity="1.000000" stroke="none" 
	d="
M114.076538,142.710373 
	C113.869316,142.854355 113.575699,142.708160 113.173676,142.301498 
	C113.345467,142.223846 113.653755,142.350235 114.076538,142.710373 
z"/>
<path fill="#040404" opacity="1.000000" stroke="none" 
	d="
M704.689453,173.613495 
	C707.144775,184.448990 706.435669,194.535965 700.892090,203.901779 
	C693.565674,216.279465 679.954834,222.081604 665.322571,219.261200 
	C651.752747,216.645584 641.243530,205.747208 639.007324,191.971436 
	C636.013184,173.526489 644.069153,157.104828 659.273560,151.226669 
	C676.202637,144.681717 697.913208,151.151077 704.689453,173.613495 
z"/>
<path fill="#E17A47" opacity="1.000000" stroke="none" 
	d="
M94.027939,102.983643 
	C94.161354,103.121765 94.268761,103.282318 94.376167,103.442863 
	C94.281288,103.402550 94.186417,103.362236 94.024490,103.190155 
	C93.957436,103.058388 94.001930,103.006065 94.027939,102.983643 
z"/>
</svg>