<?xml version="1.0" encoding="utf-8"?>
<!-- Generator: Adobe Illustrator 23.0.2, SVG Export Plug-In . SVG Version: 6.00 Build 0)  -->
<svg version="1.1" id="Layer_1" xmlns="http://www.w3.org/2000/svg" xmlns:xlink="http://www.w3.org/1999/xlink" x="0px" y="0px"
	 viewBox="0 0 421 84.74" style="enable-background:new 0 0 421 84.74;" xml:space="preserve">
<style type="text/css">
	.st0{fill:#FF6A10;}
	.st1{fill:#FFFFFF;}
	.st2{fill:#6E6E6E;}
</style>
<g>
	<g>
		<path class="st0" d="M42.37,84.74C18.97,84.74,0,65.77,0,42.37C0,18.97,18.97,0,42.37,0c23.4,0,42.37,18.97,42.37,42.37
			S65.77,84.74,42.37,84.74"/>
		<path class="st1" d="M9.13,42.37c0,10.36,8.4,18.75,18.75,18.75c3.78,0,7.29-1.12,10.23-3.04v17.53h8.52V58.09
			c2.94,1.92,6.45,3.04,10.23,3.04c10.36,0,18.75-8.4,18.75-18.75c0-10.36-8.4-18.75-18.75-18.75c-3.78,0-7.29,1.12-10.23,3.04V9.13
			h-8.52v17.53c-2.94-1.92-6.45-3.04-10.23-3.04C17.52,23.62,9.13,32.01,9.13,42.37 M46.63,42.37c0-5.65,4.58-10.23,10.23-10.23
			c5.65,0,10.23,4.58,10.23,10.23c0,5.65-4.58,10.23-10.23,10.23C51.21,52.6,46.63,48.02,46.63,42.37 M17.65,42.37
			c0-5.65,4.58-10.23,10.23-10.23c5.65,0,10.23,4.58,10.23,10.23c0,5.65-4.58,10.23-10.23,10.23C22.23,52.6,17.65,48.02,17.65,42.37
			"/>
	</g>
</g>
<g>
	<g>
		<path class="st2" d="M114.16,45.4h-8.75v14.02c0,0.97-0.72,1.69-1.69,1.69c-0.92,0-1.69-0.72-1.69-1.69V25.04
			c0-0.92,0.77-1.69,1.69-1.69h9.82c8.75,0,11.87,5.07,11.87,9.82v2.61C125.41,41.41,121.22,45.4,114.16,45.4z M122.04,33.22
			c0-3.02-1.89-6.7-8.65-6.7h-7.98v15.76h8.65c5.47,0,7.98-2.97,7.98-6.55V33.22z"/>
		<path class="st2" d="M136.1,60.96c-7.11,0-9.93-4.71-9.93-10.44v-5.17c0-5.78,2.81-10.44,9.93-10.44s9.93,4.66,9.93,10.44v5.17
			C146.03,56.25,143.22,60.96,136.1,60.96z M142.81,45.35c0-4.45-1.94-7.37-6.7-7.37c-4.81,0-6.7,2.92-6.7,7.37v5.17
			c0,4.45,1.89,7.37,6.7,7.37c4.76,0,6.7-2.92,6.7-7.37V45.35z"/>
		<path class="st2" d="M167.31,60.96c-0.87,0-1.64-0.72-1.64-1.64V44.27c0-3.79-1.02-6.24-5.42-6.24c-3.48,0-5.94,1.48-7.16,3.79
			v17.5c0,0.92-0.77,1.64-1.64,1.64c-0.92,0-1.64-0.72-1.64-1.64V25.24c0-0.92,0.72-1.64,1.64-1.64c0.87,0,1.64,0.72,1.64,1.64
			v12.48c1.69-1.79,4.2-2.81,7.62-2.81c6.5,0,8.24,4.04,8.24,9.16v15.25C168.95,60.24,168.24,60.96,167.31,60.96z"/>
		<path class="st2" d="M169.46,70.01c-0.97,0-1.48-0.72-1.48-1.48c0-0.77,0.51-1.43,1.48-1.48c2.87-0.05,4.35-1.28,4.35-5.88V36.55
			c0-0.92,0.77-1.64,1.64-1.64c0.97,0,1.64,0.72,1.64,1.64v24.51C177.08,67.1,174.58,70.01,169.46,70.01z M175.45,24.32
			c1.23,0,2.2,0.97,2.2,2.2s-0.97,2.15-2.2,2.15c-1.23,0-2.2-0.92-2.2-2.15S174.22,24.32,175.45,24.32z"/>
		<path class="st2" d="M191.1,60.96c-7.11,0-9.93-4.71-9.93-10.44v-5.17c0-5.78,2.81-10.44,9.93-10.44c7.11,0,9.93,4.66,9.93,10.44
			v5.17C201.03,56.25,198.22,60.96,191.1,60.96z M197.81,45.35c0-4.45-1.94-7.37-6.7-7.37c-4.81,0-6.7,2.92-6.7,7.37v5.17
			c0,4.45,1.89,7.37,6.7,7.37c4.76,0,6.7-2.92,6.7-7.37V45.35z"/>
		<path class="st2" d="M209.06,60.96c-0.61,0-1.74-0.41-2.46-1.07c-1.18-1.07-1.64-2.61-1.64-4.14v-30.5c0-0.92,0.72-1.64,1.59-1.64
			c0.92,0,1.64,0.72,1.64,1.64v29.63c0,2.25,0.56,2.87,1.69,3.33c0.56,0.26,0.77,0.72,0.77,1.28
			C210.65,60.44,209.98,60.96,209.06,60.96z"/>
		<path class="st2" d="M231.52,60.96c-0.82,0-1.54-0.31-2.15-0.82c-0.56-0.51-0.97-1.28-1.23-2.05c-1.84,2.35-4.91,2.87-7.16,2.87
			c-6.45,0-8.85-3.38-8.85-7.32v-0.41c0-3.99,2.56-7.21,9.11-7.21h6.45v-1.43c0-4.6-1.13-6.86-5.99-6.86
			c-1.84,0-3.07,0.26-4.09,0.67c-1.18,0.51-1.69,0.92-2.3,0.92c-0.77,0-1.38-0.61-1.38-1.38c0-0.87,0.87-1.53,2.2-2.1
			c1.69-0.67,3.74-0.92,5.73-0.92c7.22,0,9.06,3.63,9.06,9.88v10.08c0,2.2,0.36,2.87,1.48,3.33c0.56,0.26,0.82,0.72,0.82,1.28
			C233.21,60.44,232.49,60.96,231.52,60.96z M227.68,48.73h-6.24c-4.86,0-6.09,2.25-6.09,4.55v0.36c0,2.35,1.23,4.55,5.99,4.55
			c3.99,0,6.34-2,6.34-6.09V48.73z"/>
		<path class="st2" d="M260.43,59.47c-0.41,1.18-1.02,1.64-1.89,1.64c-0.97,0-1.59-0.46-2.05-1.64
			c-4.5-12.23-8.29-23.64-11.46-34.43c-0.41-1.28,0.61-2.15,1.64-2.15c0.67,0,1.33,0.41,1.59,1.28c2.87,9.72,6.29,20.31,10.39,31.31
			c4.04-11.05,7.62-21.64,10.49-31.47c0.26-0.77,0.87-1.13,1.48-1.13c0.97,0,1.89,0.82,1.54,2
			C268.97,35.68,264.98,47.19,260.43,59.47z"/>
		<path class="st2" d="M290.82,60.96c-0.82,0-1.54-0.31-2.15-0.82c-0.56-0.51-0.97-1.28-1.23-2.05c-1.84,2.35-4.91,2.87-7.16,2.87
			c-6.45,0-8.85-3.38-8.85-7.32v-0.41c0-3.99,2.56-7.21,9.11-7.21h6.45v-1.43c0-4.6-1.13-6.86-5.99-6.86
			c-1.84,0-3.07,0.26-4.09,0.67c-1.18,0.51-1.69,0.92-2.3,0.92c-0.77,0-1.38-0.61-1.38-1.38c0-0.87,0.87-1.53,2.2-2.1
			c1.69-0.67,3.74-0.92,5.73-0.92c7.22,0,9.06,3.63,9.06,9.88v10.08c0,2.2,0.36,2.87,1.48,3.33c0.56,0.26,0.82,0.72,0.82,1.28
			C292.51,60.44,291.79,60.96,290.82,60.96z M286.98,48.73h-6.24c-4.86,0-6.09,2.25-6.09,4.55v0.36c0,2.35,1.23,4.55,5.99,4.55
			c3.99,0,6.34-2,6.34-6.09V48.73z"/>
		<path class="st2" d="M312.41,60.96c-0.51,0-1.08-0.26-1.38-0.92c-2.25-4.35-5.12-8.7-8.03-12.59l-3.94,4.04v7.83
			c0,0.92-0.77,1.64-1.64,1.64c-0.92,0-1.64-0.72-1.64-1.64V25.24c0-0.92,0.72-1.64,1.64-1.64c0.87,0,1.64,0.72,1.64,1.64V47.4
			l11.77-12.08c0.61-0.56,1.53-0.56,2.15,0c0.56,0.56,0.56,1.53-0.05,2.1l-7.62,7.78c3.12,4.14,6.19,8.8,8.6,13.46
			C314.51,59.93,313.48,60.96,312.41,60.96z"/>
		<path class="st2" d="M336.61,60.96c-0.66,0-1.79-0.41-2.46-1.07c-0.66-0.61-1.07-1.33-1.28-2.1c-1.74,2-4.35,3.17-8.03,3.17
			c-6.45,0-8.29-4.09-8.29-9.21v-15.2c0-0.97,0.77-1.64,1.64-1.64c0.92,0,1.64,0.67,1.64,1.64v14.99c0,3.89,1.07,6.24,5.48,6.24
			c3.68,0,5.99-1.59,7.16-4.04V36.55c0-0.97,0.72-1.64,1.64-1.64c0.92,0,1.64,0.72,1.64,1.64v18.32c0,2.25,0.51,2.87,1.64,3.33
			c0.56,0.26,0.87,0.72,0.87,1.28C338.25,60.44,337.48,60.96,336.61,60.96z"/>
		<path class="st2" d="M360.7,60.96c-0.67,0-1.79-0.41-2.46-1.07c-0.67-0.61-1.08-1.33-1.28-2.1c-1.74,2-4.35,3.17-8.03,3.17
			c-6.45,0-8.29-4.09-8.29-9.21v-15.2c0-0.97,0.77-1.64,1.64-1.64c0.92,0,1.64,0.67,1.64,1.64v14.99c0,3.89,1.08,6.24,5.47,6.24
			c3.68,0,5.99-1.59,7.16-4.04V36.55c0-0.97,0.72-1.64,1.64-1.64c0.92,0,1.64,0.72,1.64,1.64v18.32c0,2.25,0.51,2.87,1.64,3.33
			c0.56,0.26,0.87,0.72,0.87,1.28C362.34,60.44,361.58,60.96,360.7,60.96z"/>
		<path class="st2" d="M375.8,60.65h-1.28c-6.96,0-8.39-4.25-8.39-10.69V38.13h-1.79c-0.82,0-1.48-0.67-1.48-1.48
			s0.66-1.43,1.48-1.43h1.79v-6.19c0-0.92,0.72-1.64,1.64-1.64s1.64,0.72,1.64,1.64v6.19h5.12c0.82,0,1.48,0.61,1.48,1.43
			s-0.66,1.48-1.48,1.48h-5.12v11.82c0,5.53,0.87,7.62,5.32,7.62h1.07c0.87,0,1.54,0.72,1.54,1.53
			C377.33,59.98,376.67,60.65,375.8,60.65z"/>
		<path class="st2" d="M398.97,60.96c-0.66,0-1.79-0.41-2.46-1.07c-0.66-0.61-1.07-1.33-1.28-2.1c-1.74,2-4.35,3.17-8.03,3.17
			c-6.45,0-8.29-4.09-8.29-9.21v-15.2c0-0.97,0.77-1.64,1.64-1.64c0.92,0,1.64,0.67,1.64,1.64v14.99c0,3.89,1.07,6.24,5.48,6.24
			c3.68,0,5.99-1.59,7.16-4.04V36.55c0-0.97,0.72-1.64,1.64-1.64c0.92,0,1.64,0.72,1.64,1.64v18.32c0,2.25,0.51,2.87,1.64,3.33
			c0.56,0.26,0.87,0.72,0.87,1.28C400.61,60.44,399.84,60.96,398.97,60.96z"/>
		<path class="st2" d="M410.69,60.96c-3.17,0-5.17-0.36-7.16-1.13c-0.87-0.31-1.13-1.23-0.82-1.94c0.26-0.77,1.07-1.18,1.89-0.82
			c1.69,0.61,3.27,0.97,6.14,0.97c4.3,0,6.09-1.89,6.09-4.6c0-3.53-3.63-3.79-7.27-4.55c-3.48-0.77-6.86-1.89-6.86-6.7
			c0-4.6,3.53-7.27,8.39-7.27c2.66,0,4.45,0.26,6.34,1.07c0.87,0.31,1.13,1.23,0.82,2c-0.31,0.67-1.07,1.13-1.89,0.77
			c-1.69-0.67-3.07-0.97-5.22-0.97c-3.48,0-5.32,1.79-5.32,4.3c0,3.17,3.22,3.63,6.6,4.3c3.74,0.77,7.57,1.74,7.57,6.96
			C420,58.29,416.32,60.96,410.69,60.96z"/>
	</g>
</g>
</svg>
