<?xml version="1.0" encoding="UTF-8"?>
<svg id="Layer_1" xmlns="http://www.w3.org/2000/svg" viewBox="0 0 270 44"><defs><style>.cls-1{fill:#4b286d;}.cls-2{fill:#6c0;}</style></defs><title>Artboard 1</title><path class="cls-1" d="M151.91,12.76a1.65,1.65,0,1,1-1.66,1.64A1.65,1.65,0,0,1,151.91,12.76Zm0,3.05a1.41,1.41,0,1,0-1.36-1.41A1.35,1.35,0,0,0,151.91,15.81Zm-.64-2.37H152c.45,0,.67.18.67.55a.5.5,0,0,1-.51.53l.55.85h-.32l-.52-.83h-.32v.83h-.3Zm.3.86h.31c.27,0,.51,0,.51-.32s-.22-.3-.42-.3h-.4Z"/><polygon class="cls-1" points="88.99 15.84 88.99 12.77 78.03 12.77 78.03 28.57 88.99 28.57 88.99 25.36 82.47 25.36 82.47 21.86 87.89 21.86 87.89 18.79 82.47 18.79 82.47 15.84 88.99 15.84"/><polygon class="cls-1" points="108.31 25.45 101.47 25.45 101.47 12.77 96.97 12.77 96.97 28.57 108.31 28.57 108.31 25.45"/><path class="cls-1" d="M144.48,18.79c-3-.69-4.09-.76-4.09-2s1.5-1.47,2.37-1.47a10.41,10.41,0,0,1,4.72,1.19l1.23-2.91a12.94,12.94,0,0,0-6.06-1.33c-4.18,0-7,1.7-7.1,5-.13,3,2.33,4.15,4.58,4.61s4.38.83,4.42,2.12-1,1.7-3.05,1.7a14,14,0,0,1-5.39-1.34l-1,3.16a15.8,15.8,0,0,0,6.25,1.35c3,0,5.14-.47,6.73-2a4.54,4.54,0,0,0,1.47-3.46c0-2.5-1.56-3.9-5.05-4.69"/><polygon class="cls-1" points="71.66 15.88 71.66 12.77 57.88 12.77 57.88 15.88 62.53 15.88 62.53 28.57 67 28.57 67 15.88 71.66 15.88"/><path class="cls-1" d="M123.63,12.76v10a7.64,7.64,0,0,1,0,1.3c-.14,1-1.07,1.52-2.55,1.54a2.65,2.65,0,0,1-2.27-.92,3.27,3.27,0,0,1-.28-1.66V12.76h-4.65v10.9a4.15,4.15,0,0,0,.88,3.05c1.12,1.41,3.32,2.14,6.33,2.14h.17c4,0,6.12-1.57,6.73-3.05a5.23,5.23,0,0,0,.32-2.49V12.76Z"/><path class="cls-1" d="M60,8.44l-26.12,5.2v1.82l.09,0c17.25-4.2,26-6.72,26.1-6.74a.14.14,0,0,0,.12-.16c0-.07-.08-.12-.19-.1"/><path class="cls-2" d="M38.74,7.94c-1.27.07-3.62,2-4.91,3.07A61.3,61.3,0,0,0,22.1,23.82,142.67,142.67,0,0,1,1.59,32.6l-.18.06L0,36.46l.81-.31a194.12,194.12,0,0,0,19.5-8.82,8.32,8.32,0,0,0-.6,2.92,4.82,4.82,0,0,0,.34,1.84,4.32,4.32,0,0,0,2.53,2.44,10.92,10.92,0,0,0,7.08-.11c7.18-2.18,15.7-8.86,17.55-10.19l.07-.05a.14.14,0,0,0,0-.19.15.15,0,0,0-.2,0L47,24c-2,1.19-11.66,6.94-17.95,8.63-3.2.85-5.64.38-6.56-.9a2.75,2.75,0,0,1-.47-1.65,9.25,9.25,0,0,1,1.74-4.67c1.06-.61,2.05-1.19,2.94-1.75,6.13-3.45,13.2-10.15,13.5-14.24V9.34a1.43,1.43,0,0,0-.42-1,1.37,1.37,0,0,0-1.08-.41m-.68,2c.4-.26.52-.1.4.2-.19.46-1.07,3.29-7.65,8.69a38.23,38.23,0,0,1-5.41,3.66A56.73,56.73,0,0,1,38.06,9.89"/><polygon class="cls-1" points="33.78 13.65 6.3 19.56 5.24 22.42 33.86 15.46 33.91 15.45 33.91 13.63 33.78 13.65"/><path class="cls-1" d="M164.4,12.85h1V28.6h-1Z"/><path class="cls-1" d="M168,17.26h.83v2.43h0A4.19,4.19,0,0,1,172.94,17c4,0,4,3.2,4,4.59v7h-.84V21.43c0-1.17-.13-3.7-3.22-3.7-2.53,0-4.08,2-4.08,4.74V28.6H168Z"/><path class="cls-1" d="M183.61,18h-2.47v7.92c0,1.83.86,2,2.45,2v.73c-1.72.11-3.37-.13-3.29-2.69V18h-2.09v-.73h2.09V13.74h.84v3.52h2.47Z"/><path class="cls-1" d="M185.49,23c-.05,2.67,1.37,5.1,4.17,5.1a3.92,3.92,0,0,0,4.06-3.38h.83a4.56,4.56,0,0,1-4.89,4.11c-3.31,0-5-2.61-5-5.74s1.59-6.13,5-6.13,5.14,2.8,5,6Zm8.31-.72c0-2.39-1.54-4.59-4.14-4.59s-4,2.34-4.17,4.59Z"/><path class="cls-1" d="M197.45,19.78h.06a4.31,4.31,0,0,1,4.35-2.58V18a3.85,3.85,0,0,0-3.14,1.1,4.22,4.22,0,0,0-1.27,3.26v6.2h-.84V17.26h.84Z"/><path class="cls-1" d="M202.74,17.26h.84v2.43h0A4.21,4.21,0,0,1,207.68,17c4,0,4,3.2,4,4.59v7h-.84V21.43c0-1.17-.13-3.7-3.22-3.7-2.54,0-4.08,2-4.08,4.74V28.6h-.84Z"/><path class="cls-1" d="M222.55,26.51c0,.66,0,1.36.75,1.36a4.48,4.48,0,0,0,.62-.06v.7a3.53,3.53,0,0,1-.69.09c-1.32,0-1.52-.73-1.52-1.65v-.6h0a4.37,4.37,0,0,1-4.22,2.52c-2.14,0-3.79-.82-3.79-3.2,0-2.65,2.29-3.2,4.17-3.35,3.75-.27,3.9-.51,3.9-2.36,0-.51-.57-2.23-3.15-2.23-2,0-3.38,1.06-3.49,3h-.83c.11-2.49,1.65-3.75,4.32-3.75,2,0,4,.62,4,3Zm-.84-4.35c-.66.75-2.47.66-4.1.88-2,.22-3.11.93-3.11,2.63,0,1.37,1,2.47,3,2.47a3.94,3.94,0,0,0,4.23-3.86Z"/><path class="cls-1" d="M229.39,18h-2.47v7.92c0,1.83.86,2,2.45,2v.73c-1.72.11-3.38-.13-3.29-2.69V18H224v-.73h2.1V13.74h.84v3.52h2.47Z"/><path class="cls-1" d="M231.13,15.13V12.85H232v2.28Zm0,13.47V17.26H232V28.6Z"/><path class="cls-1" d="M239.31,17c3.34,0,5.21,2.71,5.21,5.93s-1.87,5.94-5.21,5.94-5.2-2.72-5.2-5.94S236,17,239.31,17Zm0,11.14c2.85,0,4.37-2.49,4.37-5.21s-1.52-5.2-4.37-5.2S235,20.22,235,22.93,236.47,28.14,239.31,28.14Z"/><path class="cls-1" d="M246.48,17.26h.84v2.43h.05A4.19,4.19,0,0,1,251.43,17c4,0,4,3.2,4,4.59v7h-.84V21.43c0-1.17-.13-3.7-3.22-3.7-2.53,0-4.08,2-4.08,4.74V28.6h-.84Z"/><path class="cls-1" d="M266.29,26.51c0,.66,0,1.36.75,1.36a4.22,4.22,0,0,0,.62-.06v.7a3.35,3.35,0,0,1-.68.09c-1.33,0-1.52-.73-1.52-1.65v-.6h0a4.36,4.36,0,0,1-4.21,2.52c-2.14,0-3.8-.82-3.8-3.2,0-2.65,2.3-3.2,4.17-3.35,3.75-.27,3.91-.51,3.91-2.36,0-.51-.58-2.23-3.16-2.23-2,0-3.37,1.06-3.48,3H258c.11-2.49,1.65-3.75,4.32-3.75,2,0,4,.62,4,3Zm-.83-4.35c-.67.75-2.47.66-4.11.88-2,.22-3.11.93-3.11,2.63,0,1.37,1,2.47,3,2.47a4,4,0,0,0,4.24-3.86Z"/><path class="cls-1" d="M270,12.85V28.6h-.84V12.85Z"/></svg>