<svg xmlns="http://www.w3.org/2000/svg" viewBox="0 0 172 44">
    <path
        d="M150.24,23.43a3.27,3.27 0,1 1,-3.27 -3.27,3.27 3.27,0 0,1 3.27,3.27ZM157.3,26.7h0.01a3.04,3.04 0,0 0,2.16 -0.9,3.18 3.18,0 0,0 0.94,-2.27A13.96,13.96 0,0 0,149.05 9.7a3.08,3.08 0,0 0,-0.55 -0.05,3.04 3.04,0 0,0 -1.75,0.56 3.14,3.14 0,0 0,-1.3 2.06,3.19 3.19,0 0,0 2.45,3.67l0.06,0.01a7.67,7.67 0,0 1,6.23 7.48v0.11a3.14,3.14 0,0 0,3.1 3.16ZM164.6,23.95a2.86,2.86 0,0 0,5.72 0,23.86 23.86,0 0,0 -5.91,-15.66 25.18,25.18 0,0 0,-14.87 -8.25,2.99 2.99,0 0,0 -0.49,-0.04 2.84,2.84 0,0 0,-2.82 2.3,2.77 2.77,0 0,0 2.27,3.16l0.07,0.01a18.9,18.9 0,0 1,16.01 18.21Z"
        fill="#8520c5"/>
    <path
        fill="#FFFFFF"
        d="M14.96,9.62L14.96,6.51a0.51,0.51 0,0 0,-0.51 -0.51L0.51,6a0.51,0.51 0,0 0,-0.51 0.51v3.11a0.51,0.51 0,0 0,0.51 0.51h4.6a0.22,0.22 0,0 1,0.22 0.22L5.32,25.78a0.51,0.51 0,0 0,0.51 0.51h3.29a0.51,0.51 0,0 0,0.51 -0.51L9.63,10.34a0.22,0.22 0,0 1,0.22 -0.22h4.6a0.51,0.51 0,0 0,0.51 -0.51Z"/>
    <path
        fill="#FFFFFF"
        d="M22.72,11.94a4.24,4.24 0,0 0,-3.63 2.66,0.28 0.28,0 0,1 -0.3,0.15 0.23,0.23 0,0 1,-0.22 -0.2v-1.87a0.51,0.51 0,0 0,-0.51 -0.51L14.87,12.17a0.51,0.51 0,0 0,-0.51 0.51v13.1a0.51,0.51 0,0 0,0.51 0.51h3.19a0.51,0.51 0,0 0,0.51 -0.51L18.56,19.92c0,-1.65 1.1,-3.57 4.19,-3.57h0.04a0.51,0.51 0,0 0,0.52 -0.51v-3.4a0.51,0.51 0,0 0,-0.58 -0.5Z"/>
    <path
        fill="#FFFFFF"
        d="M39.6,11.92L36.61,11.92a0.51,0.51 0,0 0,-0.51 0.51v0.67a0.22,0.22 0,0 1,-0.38 0.14,5.34 5.34,0 0,0 -4.25,-1.73c-3.85,0 -6.86,3.34 -6.86,7.6s3.01,7.6 6.86,7.6a5.35,5.35 0,0 0,4.25 -1.73,0.22 0.22,0 0,1 0.24,-0.06 0.22,0.22 0,0 1,0.14 0.2v0.67a0.51,0.51 0,0 0,0.51 0.51L39.6,26.29a0.51,0.51 0,0 0,0.51 -0.51L40.11,12.43a0.51,0.51 0,0 0,-0.51 -0.51ZM36.1,19.1a3.58,3.58 0,0 1,-3.74 3.83,3.83 3.83,0 1,1 0,-7.65 3.58,3.58 0,0 1,3.73 3.83Z"/>
    <path
        fill="#FFFFFF"
        d="M56.21,11.92h-3.35a0.51,0.51 0,0 0,-0.48 0.35l-2.91,8.88a0.22,0.22 0,0 1,-0.41 0l-2.92,-8.88a0.51,0.51 0,0 0,-0.48 -0.35h-3.35a0.51,0.51 0,0 0,-0.48 0.69L46.77,25.96a0.51,0.51 0,0 0,0.48 0.34L51.27,26.29a0.51,0.51 0,0 0,0.48 -0.34l4.94,-13.35a0.51,0.51 0,0 0,-0.48 -0.69Z"/>
    <path
        fill="#FFFFFF"
        d="M65.07,11.5a7.38,7.38 0,0 0,-7.66 7.6,7.51 7.51,0 0,0 2.14,5.41 8.09,8.09 0,0 0,5.85 2.19,7.43 7.43,0 0,0 5.73,-2.28 0.51,0.51 0,0 0,-0.12 -0.79L68.65,22.28a0.51,0.51 0,0 0,-0.57 0.04,4.3 4.3,0 0,1 -2.63,0.85c-1.95,0 -3.22,-0.74 -3.75,-2.21a0.22,0.22 0,0 1,0.2 -0.29h9.9a0.51,0.51 0,0 0,0.5 -0.44,8.73 8.73,0 0,0 0.07,-1.12 7.29,7.29 0,0 0,-7.3 -7.6ZM68.35,17.69a0.22,0.22 0,0 1,-0.17 0.08h-6.36a0.22,0.22 0,0 1,-0.17 -0.08,0.22 0.22,0 0,1 -0.04,-0.19 3.27,3.27 0,0 1,3.43 -2.5,3.22 3.22,0 0,1 3.35,2.5 0.22,0.22 0,0 1,-0.04 0.19Z"/>
    <path
        fill="#FFFFFF"
        d="M108.44,6h-3.45a0.51,0.51 0,0 0,-0.49 0.39l-3.45,13.95a0.21,0.21 0,0 1,-0.2 0.16,0.22 0.22,0 0,1 -0.22,-0.16l-3.85,-13.97a0.51,0.51 0,0 0,-0.49 -0.37h-2.74a0.51,0.51 0,0 0,-0.49 0.37l-3.85,13.97a0.22,0.22 0,0 1,-0.2 0.16,0.22 0.22,0 0,1 -0.22,-0.17l-3.44,-13.95a0.51,0.51 0,0 0,-0.49 -0.39L81.39,6a0.51,0.51 0,0 0,-0.49 0.64L86.22,25.91a0.51,0.51 0,0 0,0.49 0.37L90.99,26.29a0.51,0.51 0,0 0,0.49 -0.37l3.23,-11.69a0.22,0.22 0,0 1,0.41 0L98.35,25.91a0.51,0.51 0,0 0,0.49 0.37h4.28a0.51,0.51 0,0 0,0.49 -0.37l5.31,-19.27a0.51,0.51 0,0 0,-0.49 -0.64Z"/>
    <path
        fill="#FFFFFF"
        d="M112.63,11.92L113.25,11.92A1.69,1.69 0,0 1,114.94 13.61L114.94,24.59A1.69,1.69 0,0 1,113.25 26.29L112.63,26.29A1.69,1.69 0,0 1,110.93 24.59L110.93,13.61A1.69,1.69 0,0 1,112.63 11.92z"/>
    <path
        fill="#FFFFFF"
        d="M132.44,11.92h-9.33a0.22,0.22 0,0 1,-0.22 -0.22,2.07 2.07,0 0,1 2.27,-2.31 0.51,0.51 0,0 0,0.49 -0.51L125.65,6.07a0.51,0.51 0,0 0,-0.51 -0.51h-0.05a6.26,6.26 0,0 0,-4.7 1.64,6.26 6.26,0 0,0 -1.51,4.5 0.22,0.22 0,0 1,-0.22 0.22h-1.26a0.51,0.51 0,0 0,-0.51 0.51v2.82a0.51,0.51 0,0 0,0.51 0.51h1.26a0.22,0.22 0,0 1,0.22 0.22L118.88,25.78a0.51,0.51 0,0 0,0.51 0.51h2.99a0.51,0.51 0,0 0,0.51 -0.51L122.89,15.97a0.22,0.22 0,0 1,0.22 -0.22h5.62a0.22,0.22 0,0 1,0.22 0.22L128.94,25.78a0.51,0.51 0,0 0,0.51 0.51h2.99a0.51,0.51 0,0 0,0.51 -0.51L132.95,12.43a0.51,0.51 0,0 0,-0.51 -0.51Z"/>
    <path
        fill="#FFFFFF"
        d="M112.94,5.29a2.45,2.45 0,1 0,2.45 2.45,2.48 2.48,0 0,0 -2.45,-2.45Z"/>
    <path
        fill="#FFFFFF"
        d="M131.29,5.29a2.45,2.45 0,1 0,2.45 2.45,2.48 2.48,0 0,0 -2.45,-2.45Z"/>
    <path
        fill="#FFFFFF"
        d="M76.33,5.94L76.95,5.94A1.69,1.69 0,0 1,78.64 7.64L78.64,24.59A1.69,1.69 0,0 1,76.95 26.29L76.33,26.29A1.69,1.69 0,0 1,74.64 24.59L74.64,7.64A1.69,1.69 0,0 1,76.33 5.94z"/>
    <path
        fill="#FFFFFF"
        d="M87.25,38.46a3.44,3.44 0,0 1,-3.62 3.61,3.83 3.83,0 1,1 -0.12,-7.65 3.76,3.76 0,0 1,3.21 1.68l-1.43,0.82a2.2,2.2 0,1 0,-1.65 3.51A1.83,1.83 0,0 0,85.53 39.3h-1.96L83.57,37.83h3.69Z"/>
    <path
        fill="#FFFFFF"
        d="M87.88,39.3a2.78,2.78 0,1 1,2.78 2.77,2.75 2.75,0 0,1 -2.78,-2.77ZM91.88,39.3a1.21,1.21 0,1 0,-1.21 1.24,1.17 1.17,0 0,0 1.21,-1.24Z"/>
    <path
        fill="#FFFFFF"
        d="M98.7,36.19v1.42h2.73v1.62h-2.73v2.7h-1.68v-7.35h4.47v1.62Z"/>
    <path
        fill="#FFFFFF"
        d="M107.4,36.68L107.4,41.93h-1.58v-0.49a1.8,1.8 0,0 1,-1.5 0.64,1.97 1.97,0 0,1 -1.96,-2.17v-3.23L103.95,36.68v2.99a0.87,0.87 0,0 0,0.91 0.96c0.58,0 0.98,-0.34 0.98,-1.08v-2.87Z"/>
    <path
        fill="#FFFFFF"
        d="M111.71,36.57v1.79a1.24,1.24 0,0 0,-1.58 1.2v2.37h-1.58L108.56,36.67h1.58v0.94A1.58,1.58 0,0 1,111.71 36.57Z"/>
    <path
        fill="#FFFFFF"
        d="M114.6,38.19v1.86c0,0.45 0.39,0.49 1.08,0.45v1.43c-2.06,0.21 -2.66,-0.41 -2.66,-1.88v-1.86h-0.84v-1.51h0.84v-1l1.58,-0.47v1.47h1.08v1.51Z"/>
    <path
        fill="#FFFFFF"
        d="M121.62,38.7L121.62,41.93h-1.58v-2.99a0.87,0.87 0,0 0,-0.91 -0.96c-0.58,0 -0.98,0.34 -0.98,1.08L118.15,41.93h-1.58L116.58,34.58h1.58v2.6a1.8,1.8 0,0 1,1.5 -0.64,1.96 1.96,0 0,1 1.97,2.17Z"/>
    <path
        fill="#FFFFFF"
        d="M125.37,40.67a1.37,1.37 0,0 0,1.01 -0.4l1.26,0.73A2.67,2.67 0,0 1,125.34 42.07a2.78,2.78 0,1 1,-0.12 -5.55,2.65 2.65,0 0,1 2.67,2.77 3.05,3.05 0,0 1,-0.06 0.63h-3.73A1.2,1.2 0,0 0,125.37 40.67ZM126.34,38.76a1.18,1.18 0,0 0,-2.26 0Z"/>
    <path
        fill="#FFFFFF"
        d="M131.95,36.57v1.79a1.24,1.24 0,0 0,-1.58 1.2v2.37L128.8,41.93L128.8,36.67h1.58v0.94A1.58,1.58 0,0 1,131.95 36.57Z"/>
    <path
        fill="#FFFFFF"
        d="M131.85,41.08a1,1 0,1 1,1 1A1,1 0,0 1,131.85 41.08Z"/>
</svg>
